<svg xmlns="http://www.w3.org/2000/svg" viewBox="0 0 105 78" width="100%" height="100%">
  <g transform="translate(2, 2)">
    <!-- Grafik Batang & Garis (Kiri) -->
    <rect x="2" y="42" width="7" height="22" rx="2" fill="#38BDF8"/>
    <rect x="13" y="30" width="7" height="34" rx="2" fill="#38BDF8"/>
    <rect x="24" y="19" width="7" height="45" rx="2" fill="#38BDF8"/>

    <path d="M 0 60 L 18 53 L 31 33 L 42 33" fill="none" stroke="#38BDF8" stroke-width="3.5" stroke-linecap="round" stroke-linejoin="round"/>
    <circle cx="42" cy="33" r="3.5" fill="#38BDF8"/>

    <!-- Papan Clipboard -->
    <rect x="36" y="8" width="50" height="66" rx="6" fill="#1E293B" stroke="#FFFFFF" stroke-width="3.5"/>

    <!-- Jepitan Atas -->
    <path d="M 49 8 V 5 C 49 3, 73 3, 73 5 V 8 Z" fill="#38BDF8" stroke="#FFFFFF" stroke-width="2" stroke-linejoin="round"/>
    <circle cx="61" cy="6" r="2" fill="#FFFFFF"/>

    <!-- Garis Teks Dalam Clipboard -->
    <line x1="45" y1="22" x2="63" y2="22" stroke="#94A3B8" stroke-width="2.5" stroke-linecap="round"/>
    <line x1="45" y1="31" x2="72" y2="31" stroke="#94A3B8" stroke-width="2.5" stroke-linecap="round"/>

    <!-- Centang Hijau -->
    <path d="M 43 42 L 56 60 L 88 24" fill="none" stroke="#FFFFFF" stroke-width="11" stroke-linecap="round" stroke-linejoin="round"/>
    <path d="M 43 42 L 56 60 L 88 24" fill="none" stroke="#4ADE80" stroke-width="6.5" stroke-linecap="round" stroke-linejoin="round"/>

    <!-- Piksel Digital (Kanan Atas) -->
    <rect x="88" y="15" width="5" height="5" rx="1" fill="#38BDF8"/>
    <rect x="95" y="11" width="5" height="5" rx="1" fill="#38BDF8"/>
    <rect x="95" y="18" width="5" height="5" rx="1" fill="#38BDF8"/>
  </g>
</svg>
